HIERARCHY
ROOT hip
{
  OFFSET 0 0 0
  CHANNELS 6 Xposition Yposition Zposition Zrotation Yrotation Xrotation
  JOINT abdomen
  {
    OFFSET 0 20.6881 -0.73152
    CHANNELS 3 Zrotation Xrotation Yrotation
    JOINT chest
    {
      OFFSET 0 11.7043 -0.48768
      CHANNELS 3 Zrotation Xrotation Yrotation
      JOINT neck
      {
        OFFSET 0 22.1894 -2.19456
        CHANNELS 3 Zrotation Xrotation Yrotation
        JOINT head
        {
          OFFSET -0.24384 7.07133 1.2192
          CHANNELS 3 Zrotation Xrotation Yrotation
          JOINT leftEye
          {
            OFFSET 4.14528 8.04674 8.04672
            CHANNELS 3 Zrotation Xrotation Yrotation
            End Site
            {
              OFFSET 1 0 0
            }
          }
          JOINT rightEye
          {
            OFFSET -3.6576 8.04674 8.04672
            CHANNELS 3 Zrotation Xrotation Yrotation
            End Site
            {
              OFFSET 1 0 0
            }
          }
        }
      }
      JOINT rCollar
      {
        OFFSET -2.68224 19.2634 -4.8768
        CHANNELS 3 Zrotation Xrotation Yrotation
        JOINT rShldr
        {
          OFFSET -8.77824 -1.95073 1.46304
          CHANNELS 3 Zrotation Xrotation Yrotation
          JOINT rForeArm
          {
            OFFSET -28.1742 -1.7115 0.48768
            CHANNELS 3 Zrotation Xrotation Yrotation
            JOINT rHand
            {
              OFFSET -22.5879 0.773209 7.07136
              CHANNELS 3 Zrotation Xrotation Yrotation
              JOINT rThumb1
              {
                OFFSET -1.2192 -0.487915 3.41376
                CHANNELS 3 Zrotation Xrotation Yrotation
                JOINT rThumb2
                {
                  OFFSET -3.37035 -0.52449 3.41376
                  CHANNELS 3 Zrotation Xrotation Yrotation
                  End Site
                  {
                    OFFSET -1.78271 -1.18214 1.43049
                  }
                }
              }
              JOINT rIndex1
              {
                OFFSET -7.75947 0.938293 5.60832
                CHANNELS 3 Zrotation Xrotation Yrotation
                JOINT rIndex2
                {
                  OFFSET -2.54057 -0.884171 1.56538
                  CHANNELS 3 Zrotation Xrotation Yrotation
                  End Site
                  {
                    OFFSET -1.62519 -0.234802 1.16502
                  }
                }
              }
              JOINT rMid1
              {
                OFFSET -8.24714 1.18213 3.41376
                CHANNELS 3 Zrotation Xrotation Yrotation
                JOINT rMid2
                {
                  OFFSET -3.10165 -0.590103 1.0647
                  CHANNELS 3 Zrotation Xrotation Yrotation
                  End Site
                  {
                    OFFSET -2.48547 -0.328903 0.83742
                  }
                }
              }
              JOINT rRing1
              {
                OFFSET -8.82822 0.546677 1.51678
                CHANNELS 3 Zrotation Xrotation Yrotation
                JOINT rRing2
                {
                  OFFSET -2.60934 -0.819778 -0.0198488
                  CHANNELS 3 Zrotation Xrotation Yrotation
                  End Site
                  {
                    OFFSET -2.33842 -0.294052 0.168128
                  }
                }
              }
              JOINT rPinky1
              {
                OFFSET -8.27202 -0.0477905 -0.4584
                CHANNELS 3 Zrotation Xrotation Yrotation
                JOINT rPinky2
                {
                  OFFSET -1.82734 -0.647385 -0.700984
                  CHANNELS 3 Zrotation Xrotation Yrotation
                  End Site
                  {
                    OFFSET -1.69225 -0.51767 -0.607171
                  }
                }
              }
            }
          }
        }
      }
      JOINT lCollar
      {
        OFFSET 2.68224 19.2634 -4.8768
        CHANNELS 3 Zrotation Xrotation Yrotation
        JOINT lShldr
        {
          OFFSET 8.77824 -1.95073 1.46304
          CHANNELS 3 Zrotation Xrotation Yrotation
          JOINT lForeArm
          {
            OFFSET 28.1742 -1.7115 0.48768
            CHANNELS 3 Zrotation Xrotation Yrotation
            JOINT lHand
            {
              OFFSET 22.5879 0.773209 7.07136
              CHANNELS 3 Zrotation Xrotation Yrotation
              JOINT lThumb1
              {
                OFFSET 1.2192 -0.487915 3.41376
                CHANNELS 3 Zrotation Xrotation Yrotation
                JOINT lThumb2
                {
                  OFFSET 3.37035 -0.52449 3.41376
                  CHANNELS 3 Zrotation Xrotation Yrotation
                  End Site
                  {
                    OFFSET 1.78271 -1.18214 1.43049
                  }
                }
              }
              JOINT lIndex1
              {
                OFFSET 7.75947 0.938293 5.60832
                CHANNELS 3 Zrotation Xrotation Yrotation
                JOINT lIndex2
                {
                  OFFSET 2.54057 -0.884171 1.56538
                  CHANNELS 3 Zrotation Xrotation Yrotation
                  End Site
                  {
                    OFFSET 1.62519 -0.234802 1.16502
                  }
                }
              }
              JOINT lMid1
              {
                OFFSET 8.24714 1.18213 3.41376
                CHANNELS 3 Zrotation Xrotation Yrotation
                JOINT lMid2
                {
                  OFFSET 3.10165 -0.590103 1.0647
                  CHANNELS 3 Zrotation Xrotation Yrotation
                  End Site
                  {
                    OFFSET 2.48547 -0.328903 0.83742
                  }
                }
              }
              JOINT lRing1
              {
                OFFSET 8.82822 0.546677 1.51678
                CHANNELS 3 Zrotation Xrotation Yrotation
                JOINT lRing2
                {
                  OFFSET 2.60934 -0.819778 -0.0198488
                  CHANNELS 3 Zrotation Xrotation Yrotation
                  End Site
                  {
                    OFFSET 2.33842 -0.294052 0.168128
                  }
                }
              }
              JOINT lPinky1
              {
                OFFSET 8.27202 -0.0477905 -0.4584
                CHANNELS 3 Zrotation Xrotation Yrotation
                JOINT lPinky2
                {
                  OFFSET 1.82734 -0.647385 -0.700984
                  CHANNELS 3 Zrotation Xrotation Yrotation
                  End Site
                  {
                    OFFSET 1.69225 -0.51767 -0.607171
                  }
                }
              }
            }
          }
        }
      }
    }
  }
  JOINT rButtock
  {
    OFFSET -8.77824 4.35084 1.2192
    CHANNELS 3 Zrotation Xrotation Yrotation
    JOINT rThigh
    {
      OFFSET 0 -1.70687 -2.19456
      CHANNELS 3 Zrotation Xrotation Yrotation
      JOINT rShin
      {
        OFFSET 0 -36.8199 0.73152
        CHANNELS 3 Zrotation Xrotation Yrotation
        JOINT rFoot
        {
          OFFSET 0.73152 -45.1104 -5.12064
          CHANNELS 3 Zrotation Xrotation Yrotation
          End Site
          {
            OFFSET -1.1221 -3.69964 12.103
          }
        }
      }
    }
  }
  JOINT lButtock
  {
    OFFSET 8.77824 4.35084 1.2192
    CHANNELS 3 Zrotation Xrotation Yrotation
    JOINT lThigh
    {
      OFFSET 0 -1.70687 -2.19456
      CHANNELS 3 Zrotation Xrotation Yrotation
      JOINT lShin
      {
        OFFSET 0 -36.8199 0.73152
        CHANNELS 3 Zrotation Xrotation Yrotation
        JOINT lFoot
        {
          OFFSET -0.73152 -45.1104 -5.12064
          CHANNELS 3 Zrotation Xrotation Yrotation
          End Site
          {
            OFFSET 1.1221 -3.69964 12.103
          }
        }
      }
    }
  }
}
MOTION
Frames:	7
Frame Time:	0.00833333
-4.98394 84.2564 36.0235 0.0 0.0 0.0 -1.24153 -0.00398111 -0.0340793 -0.342498 -0.00249242 -0.0593279 1.57682e-16 -1.59028e-15 -7.45443e-17 -2.36057e-16 -6.36111e-15 -2.36057e-16 -0.0 0.0 0.0 -0.0 0.0 0.0 9.83565e-17 5.00844e-17 1.98785e-16 1.54844e-15 7.82715e-16 -1.98785e-16 1.93815e-15 3.75703e-14 -2.8625e-14 -8.05451e-14 1.77863e-13 -1.36764e-13 -1.72817e-13 4.69061e-13 -3.33958e-13 -3.08514e-13 8.11041e-13 -5.7409e-13 -1.66582e-13 4.71517e-13 -3.33958e-13 7.73091 5.47488 0.417314 -1.73092e-13 4.68933e-13 -3.27597e-13 2.90554 0.965183 0.102902 -1.68663e-13 4.69132e-13 -3.27597e-13 10.2786 0.731801 0.0259123 -1.76322e-13 4.69529e-13 -3.14875e-13 2.22167 -0.733487 -0.20892 1.04798e-18 4.85314e-17 -2.98177e-16 -1.94795e-15 6.7711e-16 -1.39149e-15 -1.23743e-14 3.35946e-14 -2.22639e-14 -5.35352e-14 1.79503e-13 -1.24042e-13 -1.45887e-13 4.66075e-13 -3.33958e-13 -2.44903e-13 8.07861e-13 -5.71705e-13 -1.49884e-13 4.67939e-13 -3.11694e-13 -7.73091 5.47488 -0.417314 -1.44864e-13 4.65752e-13 -3.30778e-13 -2.90554 0.965183 -0.102902 -1.51083e-13 4.66249e-13 -3.31573e-13 -10.2786 0.731801 -0.0259123 -1.45908e-13 4.66746e-13 -3.40319e-13 -2.22167 -0.733487 0.20892 -2.03217e-16 0.0 -3.88251e-19 -0.453624 -1.92099 -0.00953072 -0.00915718 -2.07857 -0.0755661 -0.487681 3.99699 0.136686 2.03217e-16 0.0 3.88251e-19 -1.43706 -5.97118 0.129652 -0.00126569 5.25801 -0.0454271 0.507597 0.710721 -0.0722475
-6.11662 84.4866 35.6625 -3.2389 -3.9559 0.198 -1.00002 -0.0594656 0.603023 -0.395449 -0.27795 0.0897361 -0.608616 1.82119 -0.550269 1.93826 -0.56159 -0.962547 -0.0 0.0 0.0 -0.0 0.0 0.0 2.00569e-14 3.00362e-15 5.26069e-14 23.5283 6.44685 -3.52772 -6.08559 -3.27642 8.8839 0.0918154 6.73008 0.92245 -2.14458e-10 3.3728e-10 -1.87913e-10 -3.73898e-10 5.82248e-10 -3.20222e-10 -2.14454e-10 3.37286e-10 -1.87919e-10 7.73091 5.47488 0.417314 -2.14457e-10 3.37281e-10 -1.87907e-10 2.90554 0.965183 0.102902 -2.14453e-10 3.37282e-10 -1.87908e-10 10.2786 0.731801 0.0259123 -2.14462e-10 3.37282e-10 -1.87898e-10 2.22167 -0.733487 -0.20892 2.00313e-14 3.00399e-15 5.22085e-14 -23.9303 5.99454 2.19376 5.69895 -2.97203 -8.44791 -0.0323246 3.98988 -0.555841 -3.43469e-10 -5.30937e-10 -1.02703e-10 -5.94446e-10 -9.1606e-10 -1.72797e-10 -3.43473e-10 -5.30935e-10 -1.02683e-10 -7.73091 5.47488 -0.417314 -3.43468e-10 -5.30937e-10 -1.02702e-10 -2.90554 0.965183 -0.102902 -3.43474e-10 -5.30937e-10 -1.02703e-10 -10.2786 0.731801 -0.0259123 -3.43469e-10 -5.30936e-10 -1.02711e-10 -2.22167 -0.733487 0.20892 -2.03217e-16 0.0 -3.88251e-19 -1.07028 0.245432 1.27599 -0.00397222 -2.07931 -0.0297181 -0.700347 -0.744107 -2.82825 2.03217e-16 0.0 3.88251e-19 0.0219537 -3.65397 -2.19553 -0.011242 5.01057 -0.0621884 0.0453512 -3.21343 6.83043
-6.11402 84.4861 35.661 -3.2251 -3.9625 0.203 -0.744996 -0.120265 1.27429 -0.444703 -0.559473 0.246822 -1.21903 3.7447 -1.13316 3.9728 -1.16523 -1.97749 -0.0 0.0 0.0 -0.0 0.0 0.0 4.261e-14 6.24519e-15 1.11354e-13 49.2762 13.1843 -7.39803 -11.4265 -6.4769 18.3662 -0.0531206 13.8372 1.94067 -4.55539e-10 7.16027e-10 -3.98862e-10 -7.94212e-10 1.23608e-09 -6.79683e-10 -4.55538e-10 7.16036e-10 -3.98875e-10 7.73091 5.47488 0.417314 -4.55538e-10 7.1603e-10 -3.98857e-10 2.90554 0.965183 0.102902 -4.55535e-10 7.16032e-10 -3.98859e-10 10.2786 0.731801 0.0259123 -4.55544e-10 7.16031e-10 -3.98852e-10 2.22167 -0.733487 -0.20892 4.26652e-14 6.24767e-15 1.11062e-13 -49.7458 12.3006 4.6043 10.8054 -5.91922 -17.4874 0.0184719 8.20742 -1.1526 -7.28762e-10 -1.12765e-09 -2.18148e-10 -1.26129e-09 -1.94563e-09 -3.67045e-10 -7.28766e-10 -1.12765e-09 -2.18131e-10 -7.73091 5.47488 -0.417314 -7.28761e-10 -1.12765e-09 -2.18149e-10 -2.90554 0.965183 -0.102902 -7.28767e-10 -1.12765e-09 -2.1815e-10 -10.2786 0.731801 -0.0259123 -7.28762e-10 -1.12765e-09 -2.18158e-10 -2.22167 -0.733487 0.20892 -2.03217e-16 0.0 -3.88251e-19 -1.82831 2.53244 2.63769 0.00150878 -2.0801 0.0187364 -1.45974 -5.72658 -5.99233 2.03217e-16 0.0 3.88251e-19 1.76823 -1.20633 -4.64533 -0.021875 4.74865 -0.0799332 0.581658 -7.18526 14.2197
-6.11199 84.4857 35.6596 -3.218 -3.9581 0.2088 -0.513319 -0.170353 1.87724 -0.49705 -0.828846 0.387902 -1.72051 5.46155 -1.6575 5.75817 -1.68287 -2.88875 -0.0 0.0 0.0 -0.0 0.0 0.0 5.99741e-14 8.9107e-15 1.57423e-13 73.0679 19.0389 -11.1323 -15.3005 -8.8857 26.957 -0.410502 20.1686 2.92796 -6.43027e-10 1.0109e-09 -5.63071e-10 -1.12108e-09 1.74512e-09 -9.59517e-10 -6.43028e-10 1.01091e-09 -5.6309e-10 7.73091 5.47488 0.417314 -6.43025e-10 1.01091e-09 -5.63066e-10 2.90554 0.965183 0.102902 -6.43023e-10 1.01091e-09 -5.63069e-10 10.2786 0.731801 0.0259123 -6.43032e-10 1.01091e-09 -5.63065e-10 2.22167 -0.733487 -0.20892 6.00919e-14 8.91492e-15 1.57222e-13 -73.224 17.8754 6.87885 14.5409 -8.14232 -25.5856 0.139622 11.9651 -1.70043 -1.03011e-09 -1.59374e-09 -3.07441e-10 -1.78285e-09 -2.74979e-09 -5.17247e-10 -1.03012e-09 -1.59374e-09 -3.07427e-10 -7.73091 5.47488 -0.417314 -1.03011e-09 -1.59374e-09 -3.07444e-10 -2.90554 0.965183 -0.102902 -1.03012e-09 -1.59374e-09 -3.07445e-10 -10.2786 0.731801 -0.0259123 -1.03011e-09 -1.59374e-09 -3.07453e-10 -2.22167 -0.733487 0.20892 -2.03217e-16 0.0 -3.88251e-19 -2.59566 4.56811 3.85926 0.00640124 -2.08079 0.0619781 -2.60809 -10.1085 -8.89594 2.03217e-16 0.0 3.88251e-19 3.50261 0.965544 -6.83205 -0.0316303 4.51571 -0.0956775 1.92905 -10.4104 20.9644
-6.10909 84.4847 35.6569 -3.2105 -3.9461 0.2196 -0.342846 -0.193745 2.30936 -0.559895 -1.06786 0.488936 -2.02384 6.66366 -2.02911 6.96196 -1.98737 -3.53964 -0.0 0.0 0.0 -0.0 0.0 0.0 6.43658e-14 1.01361e-14 1.718e-13 90.1868 22.97 -14.0047 -17.5546 -10.2148 33.0276 -0.803297 24.581 3.68598 -6.96532e-10 1.0961e-09 -6.10428e-10 -1.21432e-09 1.89221e-09 -1.04028e-09 -6.96533e-10 1.09611e-09 -6.1045e-10 7.73091 5.47488 0.417314 -6.96529e-10 1.0961e-09 -6.10425e-10 2.90554 0.965183 0.102902 -6.96527e-10 1.0961e-09 -6.10427e-10 10.2786 0.731801 0.0259123 -6.96537e-10 1.0961e-09 -6.10425e-10 2.22167 -0.733487 -0.20892 6.45006e-14 1.01411e-14 1.71651e-13 -89.8174 21.7275 8.52784 16.6659 -9.32092 -31.0914 0.26793 14.5774 -2.09457 -1.12161e-09 -1.73327e-09 -3.31353e-10 -1.94121e-09 -2.99046e-09 -5.57334e-10 -1.12162e-09 -1.73326e-09 -3.31341e-10 -7.73091 5.47488 -0.417314 -1.12161e-09 -1.73327e-09 -3.31357e-10 -2.90554 0.965183 -0.102902 -1.12162e-09 -1.73327e-09 -3.31358e-10 -10.2786 0.731801 -0.0259123 -1.12161e-09 -1.73327e-09 -3.31366e-10 -2.22167 -0.733487 0.20892 -2.03217e-16 0.0 -3.88251e-19 -3.1801 5.98584 4.71648 0.00981984 -2.08128 0.0921876 -3.67859 -13.11 -10.9914 2.03217e-16 0.0 3.88251e-19 4.81143 2.46971 -8.35955 -0.0388814 4.35525 -0.106443 3.33145 -12.3985 25.7739
-6.1103 84.4853 35.6576 -3.2185 -3.9404 0.2152 -0.256902 -0.173091 2.50666 -0.647755 -1.27894 0.534897 -2.07573 7.14779 -2.18409 7.36151 -1.98221 -3.83024 -0.0 0.0 0.0 -0.0 0.0 0.0 5.0349e-14 9.30795e-15 1.37607e-13 97.1047 24.4137 -15.3036 -18.3501 -10.6447 35.426 -0.994362 26.3249 4.0062 -5.55782e-10 8.78141e-10 -4.89183e-10 -9.68845e-10 1.51599e-09 -8.33826e-10 -5.55782e-10 8.78152e-10 -4.89206e-10 7.73091 5.47488 0.417314 -5.55779e-10 8.78145e-10 -4.89183e-10 2.90554 0.965183 0.102902 -5.55777e-10 8.78147e-10 -4.89185e-10 10.2786 0.731801 0.0259123 -5.55787e-10 8.78145e-10 -4.89183e-10 2.22167 -0.733487 -0.20892 5.04246e-14 9.31254e-15 1.37449e-13 -96.2679 23.1898 9.10219 17.2435 -9.53985 -32.828 0.330664 15.648 -2.25991 -9.04327e-10 -1.38705e-09 -2.63416e-10 -1.56518e-09 -2.393e-09 -4.43006e-10 -9.04328e-10 -1.38704e-09 -2.63403e-10 -7.73091 5.47488 -0.417314 -9.04324e-10 -1.38704e-09 -2.63417e-10 -2.90554 0.965183 -0.102902 -9.0433e-10 -1.38704e-09 -2.6342e-10 -10.2786 0.731801 -0.0259123 -9.04325e-10 -1.38704e-09 -2.63429e-10 -2.22167 -0.733487 0.20892 -2.03217e-16 0.0 -3.88251e-19 -3.41643 6.54873 5.05219 0.011176 -2.08147 0.10417 -4.1583 -14.2704 -11.827 2.03217e-16 0.0 3.88251e-19 5.34935 3.06217 -8.951 -0.0425557 4.29671 -0.110208 3.97291 -13.0972 27.6766
-6.11443 84.4872 35.661 -3.237 -3.9392 0.1984 -0.23167 -0.12131 2.536 -0.753444 -1.46938 0.541466 -1.95631 7.11941 -2.18293 7.19072 -1.75681 -3.86313 -0.0 0.0 0.0 -0.0 0.0 0.0 2.3195e-14 7.0148e-15 6.89224e-14 96.5125 24.1484 -15.3638 -18.2694 -10.6056 35.1721 -0.975023 26.1676 3.9764 -2.76597e-10 4.44108e-10 -2.47747e-10 -4.81979e-10 7.66787e-10 -4.22629e-10 -2.76593e-10 4.44116e-10 -2.47769e-10 7.73091 5.47488 0.417314 -2.76595e-10 4.44111e-10 -2.47752e-10 2.90554 0.965183 0.102902 -2.76591e-10 4.44112e-10 -2.47751e-10 10.2786 0.731801 0.0259123 -2.76601e-10 4.44112e-10 -2.47749e-10 2.22167 -0.733487 -0.20892 2.31575e-14 7.01803e-15 6.87112e-14 -95.3517 22.9693 8.84649 16.8373 -9.1925 -31.8536 0.327488 15.6156 -2.25468 -4.67191e-10 -6.95219e-10 -1.29888e-10 -8.08676e-10 -1.19922e-09 -2.18392e-10 -4.6719e-10 -6.95211e-10 -1.29873e-10 -7.73091 5.47488 -0.417314 -4.67186e-10 -6.95212e-10 -1.29884e-10 -2.90554 0.965183 -0.102902 -4.67193e-10 -6.95213e-10 -1.29889e-10 -10.2786 0.731801 -0.0259123 -4.67187e-10 -6.95213e-10 -1.29899e-10 -2.22167 -0.733487 0.20892 -2.03217e-16 0.0 -3.88251e-19 -3.3825 6.50322 5.01183 0.0110585 -2.08145 0.103133 -4.10061 -14.1441 -11.7232 2.03217e-16 0.0 3.88251e-19 5.29607 3.00981 -8.86957 -0.0436419 4.31096 -0.108976 3.88716 -13.0035 27.4545
